<svg viewBox="0 0 64 64" xmlns="http://www.w3.org/2000/svg">
  <!-- Background -->
  <rect x="2" y="2" width="60" height="60" rx="8" fill="#50301A" stroke="#241509" stroke-width="2"/>

  <!-- Board triangles -->
  <polygon points="10,10 20,10 15,18" fill="#E6D2B4" stroke="#241509" stroke-width="0.5"/>
  <polygon points="22,10 32,10 27,18" fill="#311D10" stroke="#241509" stroke-width="0.5"/>
  <polygon points="34,10 44,10 39,18" fill="#E6D2B4" stroke="#241509" stroke-width="0.5"/>
  <polygon points="46,10 56,10 51,18" fill="#311D10" stroke="#241509" stroke-width="0.5"/>

  <polygon points="10,54 20,54 15,46" fill="#311D10" stroke="#241509" stroke-width="0.5"/>
  <polygon points="22,54 32,54 27,46" fill="#E6D2B4" stroke="#241509" stroke-width="0.5"/>
  <polygon points="34,54 44,54 39,46" fill="#311D10" stroke="#241509" stroke-width="0.5"/>
  <polygon points="46,54 56,54 51,46" fill="#E6D2B4" stroke="#241509" stroke-width="0.5"/>

  <!-- Center bar -->
  <rect x="30" y="20" width="4" height="24" fill="#786045" stroke="#241509" stroke-width="1"/>

  <!-- Checkers -->
  <circle cx="15" cy="30" r="5" fill="#281A0E" stroke="#100A06" stroke-width="1"/>
  <circle cx="15" cy="30" r="2" fill="#382A18" stroke="none"/>

  <circle cx="27" cy="30" r="5" fill="#281A0E" stroke="#100A06" stroke-width="1"/>
  <circle cx="27" cy="30" r="2" fill="#382A18" stroke="none"/>

  <circle cx="39" cy="34" r="5" fill="#E6E1DB" stroke="#A09890" stroke-width="1"/>
  <circle cx="39" cy="34" r="2" fill="#F0EAE4" stroke="none"/>

  <circle cx="51" cy="34" r="5" fill="#E6E1DB" stroke="#A09890" stroke-width="1"/>
  <circle cx="51" cy="34" r="2" fill="#F0EAE4" stroke="none"/>

  <!-- Dice -->
  <rect x="13" y="42" width="8" height="8" rx="1" fill="#E6E1DB" stroke="#100A06" stroke-width="0.7"/>
  <circle cx="15" cy="44" r="1" fill="#281A0E"/>
  <circle cx="19" cy="44" r="1" fill="#281A0E"/>
  <circle cx="15" cy="48" r="1" fill="#281A0E"/>
  <circle cx="19" cy="48" r="1" fill="#281A0E"/>

  <rect x="43" y="22" width="8" height="8" rx="1" fill="#E6E1DB" stroke="#100A06" stroke-width="0.7"/>
  <circle cx="47" cy="26" r="1" fill="#281A0E"/>
</svg>